# xmcd CD database file
#
# Track frame offsets:
#	150
#	22402
#	41736
#	63243
#	84196
#	104176
#	119663
#	135597
#	150981
#	164121
#	178653
#
# Disc length: 2706 seconds
#
# Revision: 0
# Processed by: cddbd v1.5.2PL0 Copyright (c) Steve Scherf et al.
# Submitted via: CDex 1.70beta2
#
DISCID=9b0a900b
DTITLE=Waldi Weiz Band - Rueckspiel
DYEAR=2019
DGENRE=Blues
TTITLE0=i play the blues for you
TTITLE1=rueckspiel
TTITLE2=hoochie coochie man
TTITLE3=need your love so bad
TTITLE4=tricksy
TTITLE5=willst du, dass ich bleibe
TTITLE6=love me do
TTITLE7=manchmal, wenn ich...
TTITLE8=beefsteak
TTITLE9=pour mel
TTITLE10=going down slow
EXTD=YEAR: 2019
EXTT0=
EXTT1=
EXTT2=
EXTT3=
EXTT4=
EXTT5=
EXTT6=
EXTT7=
EXTT8=
EXTT9=
EXTT10=
PLAYORDER=
